<?xml version="1.0" encoding="UTF-8"?>
<!DOCTYPE svg PUBLIC "-//W3C//DTD SVG 1.1//EN" "http://www.w3.org/Graphics/SVG/1.1/DTD/svg11.dtd">
<svg xmlns="http://www.w3.org/2000/svg" version="1.1" width="200px" height="200px" style="shape-rendering:geometricPrecision; text-rendering:geometricPrecision; image-rendering:optimizeQuality; fill-rule:evenodd; clip-rule:evenodd" xmlns:xlink="http://www.w3.org/1999/xlink">
<g><path style="opacity:1" fill="#c4f0fe" d="M -0.5,-0.5 C 12.5,-0.5 25.5,-0.5 38.5,-0.5C 42.6287,8.42201 47.2954,17.0887 52.5,25.5C 50.2209,26.6515 47.8876,27.6515 45.5,28.5C 42.3511,28.4152 39.6845,29.4152 37.5,31.5C 34.2186,31.4203 31.2186,32.087 28.5,33.5C 27.1667,33.5 25.8333,33.5 24.5,33.5C 21.3055,33.416 20.1388,32.0826 21,29.5C 14.9136,25.5266 9.74698,20.0266 5.5,13C 3.71288,11.4179 1.71288,10.2512 -0.5,9.5C -0.5,6.16667 -0.5,2.83333 -0.5,-0.5 Z"/></g>
<g><path style="opacity:1" fill="#c9eafe" d="M 38.5,-0.5 C 50.1667,-0.5 61.8333,-0.5 73.5,-0.5C 74.8108,4.74309 76.1441,10.0764 77.5,15.5C 77.7472,16.7133 78.4138,17.38 79.5,17.5C 78.7095,18.4013 77.7095,19.0679 76.5,19.5C 69.5294,20.8832 62.8628,22.8832 56.5,25.5C 55.1667,25.5 53.8333,25.5 52.5,25.5C 47.2954,17.0887 42.6287,8.42201 38.5,-0.5 Z"/></g>
<g><path style="opacity:1" fill="#cfe4fe" d="M 73.5,-0.5 C 85.8333,-0.5 98.1667,-0.5 110.5,-0.5C 110.146,1.54116 110.146,3.37449 110.5,5C 109.206,7.09031 108.206,9.09031 107.5,11C 108.171,11.9862 108.171,13.1529 107.5,14.5C 103.02,13.3376 98.6869,13.3376 94.5,14.5C 91.1226,14.9595 87.7893,15.6261 84.5,16.5C 82.9582,17.3007 81.2915,17.634 79.5,17.5C 78.4138,17.38 77.7472,16.7133 77.5,15.5C 76.1441,10.0764 74.8108,4.74309 73.5,-0.5 Z"/></g>
<g><path style="opacity:1" fill="#dfe1fe" d="M 110.5,-0.5 C 126.167,-0.5 141.833,-0.5 157.5,-0.5C 152.719,7.55788 148.052,15.7245 143.5,24C 144.056,24.3826 144.389,24.8826 144.5,25.5C 140.207,24.3434 135.873,23.3434 131.5,22.5C 125.979,20.5868 120.313,18.9201 114.5,17.5C 112.188,16.6586 109.855,15.6586 107.5,14.5C 108.171,13.1529 108.171,11.9862 107.5,11C 108.206,9.09031 109.206,7.09031 110.5,5C 110.146,3.37449 110.146,1.54116 110.5,-0.5 Z"/></g>
<g><path style="opacity:1" fill="#eee0fe" d="M 157.5,-0.5 C 168.833,-0.5 180.167,-0.5 191.5,-0.5C 190.988,2.84774 189.155,5.18108 186,6.5C 181.65,14.2614 175.817,20.7614 168.5,26C 168.957,26.414 169.291,26.914 169.5,27.5C 168.271,28.2811 166.938,28.7811 165.5,29C 166.167,29.3333 166.833,29.6667 167.5,30C 166.402,30.7697 166.402,31.603 167.5,32.5C 159.884,29.961 152.217,27.6277 144.5,25.5C 144.389,24.8826 144.056,24.3826 143.5,24C 148.052,15.7245 152.719,7.55788 157.5,-0.5 Z"/></g>
<g><path style="opacity:1" fill="#f6e0fd" d="M 191.5,-0.5 C 194.167,-0.5 196.833,-0.5 199.5,-0.5C 199.5,6.5 199.5,13.5 199.5,20.5C 193.221,26.1125 187.221,32.1125 181.5,38.5C 180.878,36.665 179.544,35.4983 177.5,35C 174.176,34.0572 170.843,33.2239 167.5,32.5C 166.402,31.603 166.402,30.7697 167.5,30C 166.833,29.6667 166.167,29.3333 165.5,29C 166.938,28.7811 168.271,28.2811 169.5,27.5C 169.291,26.914 168.957,26.414 168.5,26C 175.817,20.7614 181.65,14.2614 186,6.5C 189.155,5.18108 190.988,2.84774 191.5,-0.5 Z"/></g>
<g><path style="opacity:1" fill="#c2f5fc" d="M -0.5,9.5 C 1.71288,10.2512 3.71288,11.4179 5.5,13C 9.74698,20.0266 14.9136,25.5266 21,29.5C 20.1388,32.0826 21.3055,33.416 24.5,33.5C 23.5,34.1667 22.5,34.8333 21.5,35.5C 20.4168,35.5394 19.4168,35.8728 18.5,36.5C 18.1667,40.5 17.8333,44.5 17.5,48.5C 17.5151,56.5678 18.1818,64.5678 19.5,72.5C 18.9032,73.1386 18.0698,73.472 17,73.5C 11.1632,72.4439 5.32982,71.4439 -0.5,70.5C -0.5,50.1667 -0.5,29.8333 -0.5,9.5 Z"/></g>
<g><path style="opacity:1" fill="#20b1ea" d="M 107.5,14.5 C 109.855,15.6586 112.188,16.6586 114.5,17.5C 114.062,17.4346 113.728,17.6012 113.5,18C 114.167,18.3333 114.833,18.6667 115.5,19C 114.167,19.3333 112.833,19.6667 111.5,20C 113.689,20.677 114.022,21.8437 112.5,23.5C 115.36,30.2025 117.027,37.2025 117.5,44.5C 119.167,44.5 120.833,44.5 122.5,44.5C 122.5,47.1667 122.5,49.8333 122.5,52.5C 123.5,52.5 124.5,52.5 125.5,52.5C 125.5,55.1667 125.5,57.8333 125.5,60.5C 126.833,60.5 128.167,60.5 129.5,60.5C 129.681,63.3971 129.348,66.2305 128.5,69C 129.13,70.3102 130.13,71.1435 131.5,71.5C 132.338,71.8417 132.672,72.5084 132.5,73.5C 131.167,74.1667 130.167,75.1667 129.5,76.5C 127.116,74.1153 124.45,72.1153 121.5,70.5C 121.046,67.747 119.379,66.0803 116.5,65.5C 118.006,64.2528 119.506,64.2528 121,65.5C 121.749,64.365 121.583,63.365 120.5,62.5C 118.057,60.9447 115.39,60.278 112.5,60.5C 112.666,55.1563 112.499,49.8229 112,44.5C 111.818,47.2263 111.318,49.8929 110.5,52.5C 109.488,46.9306 108.154,41.5973 106.5,36.5C 104.833,36.5 103.167,36.5 101.5,36.5C 101.321,30.6215 99.9881,25.1215 97.5,20C 98.624,19.7508 99.624,19.2508 100.5,18.5C 97.6772,17.0257 94.8438,16.6923 92,17.5C 91.8333,17.1667 91.6667,16.8333 91.5,16.5C 92.6016,15.8243 93.6016,15.1577 94.5,14.5C 98.6869,13.3376 103.02,13.3376 107.5,14.5 Z"/></g>
<g><path style="opacity:1" fill="#1bbde8" d="M 85.5,19.5 C 86.9187,20.4511 88.5853,20.7845 90.5,20.5C 90.5,23.1667 90.5,25.8333 90.5,28.5C 93.1667,28.5 95.8333,28.5 98.5,28.5C 98.3461,36.6024 99.1795,44.6024 101,52.5C 102.067,53.1905 103.234,53.6905 104.5,54C 104.014,56.0266 104.014,58.1933 104.5,60.5C 105.873,60.3433 107.207,60.51 108.5,61C 106.563,61.1216 105.23,61.955 104.5,63.5C 99.1254,63.8282 93.7921,63.4948 88.5,62.5C 90.0453,61.5481 91.712,61.2148 93.5,61.5C 95.5,61.5 97.5,61.5 99.5,61.5C 99.6621,59.4727 99.4955,57.4727 99,55.5C 98.3964,57.6857 97.2297,57.8524 95.5,56C 94.6354,52.698 92.6354,49.698 89.5,47C 90.2459,44.2585 90.2459,41.7585 89.5,39.5C 88.5,37.8333 87.5,36.1667 86.5,34.5C 86.8748,32.5406 87.5415,30.7073 88.5,29C 87.2068,28.51 85.8734,28.3433 84.5,28.5C 84.5721,24.8604 83.2387,22.027 80.5,20C 82.1392,18.4807 83.8058,18.314 85.5,19.5 Z"/></g>
<g><path style="opacity:1" fill="#1bc1e3" d="M 84.5,16.5 C 85.0906,17.1515 85.7573,17.8182 86.5,18.5C 86.3764,19.1067 86.0431,19.44 85.5,19.5C 83.8058,18.314 82.1392,18.4807 80.5,20C 83.2387,22.027 84.5721,24.8604 84.5,28.5C 85.8734,28.3433 87.2068,28.51 88.5,29C 87.5415,30.7073 86.8748,32.5406 86.5,34.5C 87.5,36.1667 88.5,37.8333 89.5,39.5C 90.2459,41.7585 90.2459,44.2585 89.5,47C 92.6354,49.698 94.6354,52.698 95.5,56C 97.2297,57.8524 98.3964,57.6857 99,55.5C 99.4955,57.4727 99.6621,59.4727 99.5,61.5C 97.5,61.5 95.5,61.5 93.5,61.5C 91.9581,60.8365 90.2914,60.1698 88.5,59.5C 87.6558,54.9226 84.9891,52.4226 80.5,52C 82.3969,46.3749 81.3969,41.3749 77.5,37C 78.3081,36.6924 78.9747,36.1924 79.5,35.5C 77.9916,32.1606 75.6583,29.6606 72.5,28C 74.1667,27.6667 75.8333,27.3333 77.5,27C 76.8742,26.2496 76.3742,25.4162 76,24.5C 73.6194,25.435 71.1194,25.7683 68.5,25.5C 70.903,23.0901 73.5697,21.0901 76.5,19.5C 77.7095,19.0679 78.7095,18.4013 79.5,17.5C 81.2915,17.634 82.9582,17.3007 84.5,16.5 Z"/></g>
<g><path style="opacity:1" fill="#1fadef" d="M 114.5,17.5 C 120.313,18.9201 125.979,20.5868 131.5,22.5C 129.533,22.7394 127.699,22.4061 126,21.5C 124.306,23.2396 123.139,25.2396 122.5,27.5C 125.187,27.3359 127.854,27.5026 130.5,28C 128.833,30.155 127.833,32.655 127.5,35.5C 128.325,36.3857 129.325,36.719 130.5,36.5C 130.149,38.8695 129.982,41.2028 130,43.5C 132.041,44.4231 134.208,44.7564 136.5,44.5C 136.5,47.1667 136.5,49.8333 136.5,52.5C 137.833,52.5 139.167,52.5 140.5,52.5C 140.5,55.5 140.5,58.5 140.5,61.5C 138.533,61.7394 136.699,61.4061 135,60.5C 134.55,62.519 133.717,64.3523 132.5,66C 133.623,67.0437 134.956,67.7104 136.5,68C 135.113,69.683 133.447,70.8496 131.5,71.5C 130.13,71.1435 129.13,70.3102 128.5,69C 129.348,66.2305 129.681,63.3971 129.5,60.5C 128.167,60.5 126.833,60.5 125.5,60.5C 125.5,57.8333 125.5,55.1667 125.5,52.5C 124.5,52.5 123.5,52.5 122.5,52.5C 122.5,49.8333 122.5,47.1667 122.5,44.5C 120.833,44.5 119.167,44.5 117.5,44.5C 117.027,37.2025 115.36,30.2025 112.5,23.5C 114.022,21.8437 113.689,20.677 111.5,20C 112.833,19.6667 114.167,19.3333 115.5,19C 114.833,18.6667 114.167,18.3333 113.5,18C 113.728,17.6012 114.062,17.4346 114.5,17.5 Z"/></g>
<g><path style="opacity:1" fill="#18cdd1" d="M 52.5,25.5 C 53.8333,25.5 55.1667,25.5 56.5,25.5C 56.0472,26.4584 55.3805,27.2917 54.5,28C 57.686,29.7924 60.3526,32.2924 62.5,35.5C 61.5,36.1667 60.5,36.8333 59.5,37.5C 60.8149,39.976 62.4815,42.1427 64.5,44C 63.8333,44.3333 63.1667,44.6667 62.5,45C 64.3913,50.0012 67.3913,54.3346 71.5,58C 71.0426,58.414 70.7093,58.914 70.5,59.5C 71.6343,62.0698 72.4677,64.7365 73,67.5C 73.9246,68.0465 74.7579,68.7132 75.5,69.5C 73.4411,70.9512 72.4411,72.9512 72.5,75.5C 71.8902,76.391 71.5569,77.391 71.5,78.5C 71.1667,78.5 70.8333,78.5 70.5,78.5C 69.6851,77.1634 68.5185,76.1634 67,75.5C 66.5768,72.8673 65.4101,70.7006 63.5,69C 64.1667,68.6667 64.8333,68.3333 65.5,68C 64.3333,66.1667 62.8333,64.6667 61,63.5C 60.7638,61.236 60.2638,59.0693 59.5,57C 60.6537,56.0862 60.487,55.2529 59,54.5C 58.6667,55.1667 58.3333,55.8333 58,56.5C 57.7305,53.7759 57.2305,51.1092 56.5,48.5C 56.7093,47.914 57.0426,47.414 57.5,47C 56.1084,44.2762 54.9417,41.4429 54,38.5C 53.0805,38.0698 52.2472,37.7365 51.5,37.5C 51.8333,36.8333 52.1667,36.1667 52.5,35.5C 50.0197,34.5846 49.3531,33.0846 50.5,31C 48.618,30.8478 46.9514,30.0145 45.5,28.5C 47.8876,27.6515 50.2209,26.6515 52.5,25.5 Z"/></g>
<g><path style="opacity:1" fill="#1ec9d7" d="M 76.5,19.5 C 73.5697,21.0901 70.903,23.0901 68.5,25.5C 65.9779,25.8781 63.6446,26.7114 61.5,28C 66.5604,28.7196 69.0604,31.5529 69,36.5C 68.5,37 68,37.5 67.5,38C 68.825,37.8516 69.9916,38.0183 71,38.5C 71.5497,41.2634 72.3831,43.9301 73.5,46.5C 72.8444,48.4534 72.5111,50.4534 72.5,52.5C 74.1033,52.3118 75.4366,52.8118 76.5,54C 76.1667,54.3333 75.8333,54.6667 75.5,55C 78.0495,55.7514 79.7161,57.418 80.5,60C 80.1667,60.3333 79.8333,60.6667 79.5,61C 81.9005,61.1858 84.2338,61.6858 86.5,62.5C 85.5,63.1667 84.5,63.8333 83.5,64.5C 86.4116,65.0685 89.4116,65.0685 92.5,64.5C 85.0542,66.5601 78.3875,70.2267 72.5,75.5C 72.4411,72.9512 73.4411,70.9512 75.5,69.5C 74.7579,68.7132 73.9246,68.0465 73,67.5C 72.4677,64.7365 71.6343,62.0698 70.5,59.5C 70.7093,58.914 71.0426,58.414 71.5,58C 67.3913,54.3346 64.3913,50.0012 62.5,45C 63.1667,44.6667 63.8333,44.3333 64.5,44C 62.4815,42.1427 60.8149,39.976 59.5,37.5C 60.5,36.8333 61.5,36.1667 62.5,35.5C 60.3526,32.2924 57.686,29.7924 54.5,28C 55.3805,27.2917 56.0472,26.4584 56.5,25.5C 62.8628,22.8832 69.5294,20.8832 76.5,19.5 Z"/></g>
<g><path style="opacity:1" fill="#1bc5dd" d="M 93.5,61.5 C 91.712,61.2148 90.0453,61.5481 88.5,62.5C 93.7921,63.4948 99.1254,63.8282 104.5,63.5C 106.527,63.3379 108.527,63.5045 110.5,64C 111.056,64.3826 111.389,64.8826 111.5,65.5C 105.225,64.582 98.8918,64.2487 92.5,64.5C 89.4116,65.0685 86.4116,65.0685 83.5,64.5C 84.5,63.8333 85.5,63.1667 86.5,62.5C 84.2338,61.6858 81.9005,61.1858 79.5,61C 79.8333,60.6667 80.1667,60.3333 80.5,60C 79.7161,57.418 78.0495,55.7514 75.5,55C 75.8333,54.6667 76.1667,54.3333 76.5,54C 75.4366,52.8118 74.1033,52.3118 72.5,52.5C 72.5111,50.4534 72.8444,48.4534 73.5,46.5C 72.3831,43.9301 71.5497,41.2634 71,38.5C 69.9916,38.0183 68.825,37.8516 67.5,38C 68,37.5 68.5,37 69,36.5C 69.0604,31.5529 66.5604,28.7196 61.5,28C 63.6446,26.7114 65.9779,25.8781 68.5,25.5C 71.1194,25.7683 73.6194,25.435 76,24.5C 76.3742,25.4162 76.8742,26.2496 77.5,27C 75.8333,27.3333 74.1667,27.6667 72.5,28C 75.6583,29.6606 77.9916,32.1606 79.5,35.5C 78.9747,36.1924 78.3081,36.6924 77.5,37C 81.3969,41.3749 82.3969,46.3749 80.5,52C 84.9891,52.4226 87.6558,54.9226 88.5,59.5C 90.2914,60.1698 91.9581,60.8365 93.5,61.5 Z"/></g>
<g><path style="opacity:1" fill="#1ad1ca" d="M 45.5,28.5 C 46.9514,30.0145 48.618,30.8478 50.5,31C 49.3531,33.0846 50.0197,34.5846 52.5,35.5C 52.1667,36.1667 51.8333,36.8333 51.5,37.5C 52.2472,37.7365 53.0805,38.0698 54,38.5C 54.9417,41.4429 56.1084,44.2762 57.5,47C 57.0426,47.414 56.7093,47.914 56.5,48.5C 57.2305,51.1092 57.7305,53.7759 58,56.5C 58.3333,55.8333 58.6667,55.1667 59,54.5C 60.487,55.2529 60.6537,56.0862 59.5,57C 60.2638,59.0693 60.7638,61.236 61,63.5C 62.8333,64.6667 64.3333,66.1667 65.5,68C 64.8333,68.3333 64.1667,68.6667 63.5,69C 65.4101,70.7006 66.5768,72.8673 67,75.5C 68.5185,76.1634 69.6851,77.1634 70.5,78.5C 67.52,82.7815 65.52,87.4481 64.5,92.5C 64.1667,92.5 63.8333,92.5 63.5,92.5C 63.0298,90.2723 62.0298,88.9389 60.5,88.5C 61.7175,86.7832 62.7175,84.9499 63.5,83C 63.1667,82.5 62.8333,82 62.5,81.5C 61.7492,82.376 61.2492,83.376 61,84.5C 60.0561,81.6529 60.5561,79.1529 62.5,77C 59.7007,76.5609 58.7007,75.2276 59.5,73C 58.3333,72.5 57.5,71.6667 57,70.5C 56.6667,70.8333 56.3333,71.1667 56,71.5C 56.8506,67.8041 55.8506,64.4707 53,61.5C 52.8603,58.9568 52.1937,56.6234 51,54.5C 50.6667,55.1667 50.3333,55.8333 50,56.5C 49.6905,55.2341 49.1905,54.0674 48.5,53C 49.1667,52.6667 49.8333,52.3333 50.5,52C 49.6705,50.1839 48.8372,48.3506 48,46.5C 47.3457,47.6956 46.8457,47.6956 46.5,46.5C 47.4279,45.2322 47.5946,43.8989 47,42.5C 46.1247,44.5127 44.7913,44.5127 43,42.5C 42.187,40.5643 41.687,38.5643 41.5,36.5C 38.4017,36.5875 38.0684,36.0875 40.5,35C 38.9371,34.2411 37.9371,33.0744 37.5,31.5C 39.6845,29.4152 42.3511,28.4152 45.5,28.5 Z"/></g>
<g><path style="opacity:1" fill="#1fb5e7" d="M 94.5,14.5 C 93.6016,15.1577 92.6016,15.8243 91.5,16.5C 91.6667,16.8333 91.8333,17.1667 92,17.5C 94.8438,16.6923 97.6772,17.0257 100.5,18.5C 99.624,19.2508 98.624,19.7508 97.5,20C 99.9881,25.1215 101.321,30.6215 101.5,36.5C 103.167,36.5 104.833,36.5 106.5,36.5C 108.154,41.5973 109.488,46.9306 110.5,52.5C 111.318,49.8929 111.818,47.2263 112,44.5C 112.499,49.8229 112.666,55.1563 112.5,60.5C 115.39,60.278 118.057,60.9447 120.5,62.5C 121.583,63.365 121.749,64.365 121,65.5C 119.506,64.2528 118.006,64.2528 116.5,65.5C 119.379,66.0803 121.046,67.747 121.5,70.5C 118.132,68.8162 114.799,67.1496 111.5,65.5C 111.389,64.8826 111.056,64.3826 110.5,64C 108.527,63.5045 106.527,63.3379 104.5,63.5C 105.23,61.955 106.563,61.1216 108.5,61C 107.207,60.51 105.873,60.3433 104.5,60.5C 104.014,58.1933 104.014,56.0266 104.5,54C 103.234,53.6905 102.067,53.1905 101,52.5C 99.1795,44.6024 98.3461,36.6024 98.5,28.5C 95.8333,28.5 93.1667,28.5 90.5,28.5C 90.5,25.8333 90.5,23.1667 90.5,20.5C 88.5853,20.7845 86.9187,20.4511 85.5,19.5C 86.0431,19.44 86.3764,19.1067 86.5,18.5C 85.7573,17.8182 85.0906,17.1515 84.5,16.5C 87.7893,15.6261 91.1226,14.9595 94.5,14.5 Z"/></g>
<g><path style="opacity:1" fill="#23aaf3" d="M 131.5,22.5 C 135.873,23.3434 140.207,24.3434 144.5,25.5C 152.217,27.6277 159.884,29.961 167.5,32.5C 170.843,33.2239 174.176,34.0572 177.5,35C 179.544,35.4983 180.878,36.665 181.5,38.5C 181.5,38.8333 181.5,39.1667 181.5,39.5C 176.349,41.6322 171.683,44.6322 167.5,48.5C 155.567,56.4286 143.9,64.7619 132.5,73.5C 132.672,72.5084 132.338,71.8417 131.5,71.5C 133.447,70.8496 135.113,69.683 136.5,68C 134.956,67.7104 133.623,67.0437 132.5,66C 133.717,64.3523 134.55,62.519 135,60.5C 136.699,61.4061 138.533,61.7394 140.5,61.5C 140.5,58.5 140.5,55.5 140.5,52.5C 139.167,52.5 137.833,52.5 136.5,52.5C 136.5,49.8333 136.5,47.1667 136.5,44.5C 134.208,44.7564 132.041,44.4231 130,43.5C 129.982,41.2028 130.149,38.8695 130.5,36.5C 129.325,36.719 128.325,36.3857 127.5,35.5C 127.833,32.655 128.833,30.155 130.5,28C 127.854,27.5026 125.187,27.3359 122.5,27.5C 123.139,25.2396 124.306,23.2396 126,21.5C 127.699,22.4061 129.533,22.7394 131.5,22.5 Z"/></g>
<g><path style="opacity:1" fill="#33e3be" d="M 21.5,35.5 C 24.6481,41.7962 27.8148,48.1296 31,54.5C 31.7581,56.7695 31.5914,58.9361 30.5,61C 32.7903,63.0795 34.4569,65.5795 35.5,68.5C 38.328,76.4651 41.1614,84.4651 44,92.5C 45.4556,93.9196 46.9556,95.253 48.5,96.5C 47.624,97.2508 46.624,97.7508 45.5,98C 46.8333,98.6667 48.1667,99.3333 49.5,100C 48.8333,100.333 48.1667,100.667 47.5,101C 48.974,106.259 51.3074,111.093 54.5,115.5C 54.1667,116.167 53.8333,116.833 53.5,117.5C 55.4993,120.943 57.4993,124.276 59.5,127.5C 53.5378,131.821 47.5378,136.155 41.5,140.5C 41.5,139.167 41.5,137.833 41.5,136.5C 43.5795,135.956 45.5795,135.122 47.5,134C 46.287,131.313 45.6203,128.48 45.5,125.5C 48.9983,125.435 49.4983,124.101 47,121.5C 46.3333,122.833 45.6667,122.833 45,121.5C 44.6667,122.5 44.3333,123.5 44,124.5C 43.8184,121.774 43.3184,119.107 42.5,116.5C 40.1759,116.123 39.5092,115.123 40.5,113.5C 39.9747,112.808 39.3081,112.308 38.5,112C 39.5762,110.274 39.7429,108.441 39,106.5C 37.378,104.5 35.5447,102.667 33.5,101C 34.8333,100.667 36.1667,100.333 37.5,100C 33.5721,98.3137 32.2387,95.4804 33.5,91.5C 32.0188,88.593 30.6855,85.593 29.5,82.5C 28.8076,83.0253 28.3076,83.6919 28,84.5C 27.6667,83.1667 27.3333,81.8333 27,80.5C 26.6667,80.8333 26.3333,81.1667 26,81.5C 25.3333,79.8333 25.3333,78.1667 26,76.5C 26.5354,78.2705 27.3687,78.6039 28.5,77.5C 27.6906,75.9291 27.3573,74.2624 27.5,72.5C 25.8333,72.5 24.1667,72.5 22.5,72.5C 21.8413,75.4552 21.5079,78.4552 21.5,81.5C 20.8333,78.5 20.1667,75.5 19.5,72.5C 18.1818,64.5678 17.5151,56.5678 17.5,48.5C 17.8333,44.5 18.1667,40.5 18.5,36.5C 19.4168,35.8728 20.4168,35.5394 21.5,35.5 Z"/></g>
<g><path style="opacity:1" fill="#1ed7c5" d="M 37.5,31.5 C 37.9371,33.0744 38.9371,34.2411 40.5,35C 38.0684,36.0875 38.4017,36.5875 41.5,36.5C 41.687,38.5643 42.187,40.5643 43,42.5C 44.7913,44.5127 46.1247,44.5127 47,42.5C 47.5946,43.8989 47.4279,45.2322 46.5,46.5C 46.8457,47.6956 47.3457,47.6956 48,46.5C 48.8372,48.3506 49.6705,50.1839 50.5,52C 49.8333,52.3333 49.1667,52.6667 48.5,53C 49.1905,54.0674 49.6905,55.2341 50,56.5C 50.3333,55.8333 50.6667,55.1667 51,54.5C 52.1937,56.6234 52.8603,58.9568 53,61.5C 55.8506,64.4707 56.8506,67.8041 56,71.5C 56.3333,71.1667 56.6667,70.8333 57,70.5C 57.5,71.6667 58.3333,72.5 59.5,73C 58.7007,75.2276 59.7007,76.5609 62.5,77C 60.5561,79.1529 60.0561,81.6529 61,84.5C 61.2492,83.376 61.7492,82.376 62.5,81.5C 62.8333,82 63.1667,82.5 63.5,83C 62.7175,84.9499 61.7175,86.7832 60.5,88.5C 62.0298,88.9389 63.0298,90.2723 63.5,92.5C 63.3599,98.5362 63.6932,104.536 64.5,110.5C 63.2334,111.087 62.2334,111.087 61.5,110.5C 62.5202,108.568 62.6869,106.568 62,104.5C 61.0255,106.878 60.3589,106.544 60,103.5C 59.6667,103.833 59.3333,104.167 59,104.5C 58.5512,100.336 57.0512,96.6694 54.5,93.5C 55.1667,92.8333 55.8333,92.1667 56.5,91.5C 56.1543,90.3044 55.6543,90.3044 55,91.5C 53.0838,88.1016 52.0838,84.4349 52,80.5C 51.6827,82.3008 51.016,82.6341 50,81.5C 49.5483,78.1228 48.8816,74.7895 48,71.5C 44.9532,65.2955 41.7865,59.1289 38.5,53C 39.5,52.6667 40.5,52.3333 41.5,52C 39.4877,48.9951 37.6544,45.8285 36,42.5C 35.2496,41.8742 34.4162,41.3742 33.5,41C 34.2135,39.6569 33.8802,38.3236 32.5,37C 33.938,36.7811 35.2713,36.2811 36.5,35.5C 34.5477,34.8967 32.5477,35.23 30.5,36.5C 29.2888,35.7261 29.2888,34.8928 30.5,34C 29.9056,33.5357 29.2389,33.369 28.5,33.5C 31.2186,32.087 34.2186,31.4203 37.5,31.5 Z"/></g>
<g><path style="opacity:1" fill="#956ae2" d="M 181.5,39.5 C 181.822,45.358 181.489,51.0247 180.5,56.5C 180.5,52.5 180.5,48.5 180.5,44.5C 179.07,44.5792 177.736,44.2458 176.5,43.5C 177.089,45.3733 176.422,47.04 174.5,48.5C 172.273,47.9475 169.939,47.9475 167.5,48.5C 171.683,44.6322 176.349,41.6322 181.5,39.5 Z"/></g>
<g><path style="opacity:1" fill="#fbddf7" d="M 199.5,20.5 C 199.5,34.8333 199.5,49.1667 199.5,63.5C 192.902,64.8284 186.235,66.8284 179.5,69.5C 179.586,65.1434 179.92,60.81 180.5,56.5C 181.489,51.0247 181.822,45.358 181.5,39.5C 181.5,39.1667 181.5,38.8333 181.5,38.5C 187.221,32.1125 193.221,26.1125 199.5,20.5 Z"/></g>
<g><path style="opacity:1" fill="#9250dd" d="M 180.5,56.5 C 179.92,60.81 179.586,65.1434 179.5,69.5C 179.672,70.4916 179.338,71.1583 178.5,71.5C 178.616,65.7985 178.782,60.1319 179,54.5C 178.042,57.5744 176.875,60.5744 175.5,63.5C 174.064,59.8636 172.397,59.697 170.5,63C 168.212,63.8221 165.878,64.4888 163.5,65C 157.423,69.0337 151.09,72.7004 144.5,76C 142.866,76.4935 141.199,76.6602 139.5,76.5C 139.762,77.9778 139.429,79.3112 138.5,80.5C 138.167,79.1667 137.833,77.8333 137.5,76.5C 135.659,78.5117 134.659,80.845 134.5,83.5C 135.552,83.3505 136.552,83.5172 137.5,84C 136.62,85.3561 136.286,86.8561 136.5,88.5C 135.833,87.8333 135.167,87.1667 134.5,86.5C 133.358,82.8832 131.692,79.5498 129.5,76.5C 130.167,75.1667 131.167,74.1667 132.5,73.5C 143.9,64.7619 155.567,56.4286 167.5,48.5C 169.939,47.9475 172.273,47.9475 174.5,48.5C 176.422,47.04 177.089,45.3733 176.5,43.5C 177.736,44.2458 179.07,44.5792 180.5,44.5C 180.5,48.5 180.5,52.5 180.5,56.5 Z"/></g>
<g><path style="opacity:1" fill="#27ddc1" d="M 24.5,33.5 C 25.8333,33.5 27.1667,33.5 28.5,33.5C 29.2389,33.369 29.9056,33.5357 30.5,34C 29.2888,34.8928 29.2888,35.7261 30.5,36.5C 32.5477,35.23 34.5477,34.8967 36.5,35.5C 35.2713,36.2811 33.938,36.7811 32.5,37C 33.8802,38.3236 34.2135,39.6569 33.5,41C 34.4162,41.3742 35.2496,41.8742 36,42.5C 37.6544,45.8285 39.4877,48.9951 41.5,52C 40.5,52.3333 39.5,52.6667 38.5,53C 41.7865,59.1289 44.9532,65.2955 48,71.5C 48.8816,74.7895 49.5483,78.1228 50,81.5C 51.016,82.6341 51.6827,82.3008 52,80.5C 52.0838,84.4349 53.0838,88.1016 55,91.5C 55.6543,90.3044 56.1543,90.3044 56.5,91.5C 55.8333,92.1667 55.1667,92.8333 54.5,93.5C 57.0512,96.6694 58.5512,100.336 59,104.5C 59.3333,104.167 59.6667,103.833 60,103.5C 60.3589,106.544 61.0255,106.878 62,104.5C 62.6869,106.568 62.5202,108.568 61.5,110.5C 62.2334,111.087 63.2334,111.087 64.5,110.5C 66.0981,114.037 67.4314,117.704 68.5,121.5C 66.2512,122.08 64.5846,123.413 63.5,125.5C 61.9382,125.733 60.6049,126.4 59.5,127.5C 57.4993,124.276 55.4993,120.943 53.5,117.5C 53.8333,116.833 54.1667,116.167 54.5,115.5C 51.3074,111.093 48.974,106.259 47.5,101C 48.1667,100.667 48.8333,100.333 49.5,100C 48.1667,99.3333 46.8333,98.6667 45.5,98C 46.624,97.7508 47.624,97.2508 48.5,96.5C 46.9556,95.253 45.4556,93.9196 44,92.5C 41.1614,84.4651 38.328,76.4651 35.5,68.5C 34.4569,65.5795 32.7903,63.0795 30.5,61C 31.5914,58.9361 31.7581,56.7695 31,54.5C 27.8148,48.1296 24.6481,41.7962 21.5,35.5C 22.5,34.8333 23.5,34.1667 24.5,33.5 Z"/></g>
<g><path style="opacity:1" fill="#f7f8ec" d="M 92.5,64.5 C 98.8918,64.2487 105.225,64.582 111.5,65.5C 114.799,67.1496 118.132,68.8162 121.5,70.5C 124.45,72.1153 127.116,74.1153 129.5,76.5C 131.692,79.5498 133.358,82.8832 134.5,86.5C 134.309,89.9827 133.643,93.3161 132.5,96.5C 126.044,96.0989 119.71,96.7656 113.5,98.5C 112.228,98.4302 111.062,98.0968 110,97.5C 110.503,100.364 111.669,103.03 113.5,105.5C 111.304,104.162 109.304,102.495 107.5,100.5C 108.571,96.0109 108.571,91.6776 107.5,87.5C 107.167,87.5 106.833,87.5 106.5,87.5C 106.539,84.911 105.539,82.911 103.5,81.5C 102.781,79.1119 101.115,77.6119 98.5,77C 93.9147,75.7748 89.248,75.2748 84.5,75.5C 83.2003,74.8921 81.8669,74.2255 80.5,73.5C 77.5606,75.3607 74.5606,77.0274 71.5,78.5C 71.5569,77.391 71.8902,76.391 72.5,75.5C 78.3875,70.2267 85.0542,66.5601 92.5,64.5 Z"/></g>
<g><path style="opacity:1" fill="#8b3adb" d="M 178.5,71.5 C 178.23,76.0275 177.563,80.3609 176.5,84.5C 176.806,81.6146 176.473,78.9479 175.5,76.5C 175.062,76.5654 174.728,76.3988 174.5,76C 176.158,75.2747 176.658,74.108 176,72.5C 164.772,78.9838 153.438,85.3172 142,91.5C 141.781,90.062 141.281,88.7287 140.5,87.5C 139.118,93.2264 138.118,98.8931 137.5,104.5C 137.782,99.0735 137.449,93.7401 136.5,88.5C 136.286,86.8561 136.62,85.3561 137.5,84C 136.552,83.5172 135.552,83.3505 134.5,83.5C 134.659,80.845 135.659,78.5117 137.5,76.5C 137.833,77.8333 138.167,79.1667 138.5,80.5C 139.429,79.3112 139.762,77.9778 139.5,76.5C 141.199,76.6602 142.866,76.4935 144.5,76C 151.09,72.7004 157.423,69.0337 163.5,65C 165.878,64.4888 168.212,63.8221 170.5,63C 172.397,59.697 174.064,59.8636 175.5,63.5C 176.875,60.5744 178.042,57.5744 179,54.5C 178.782,60.1319 178.616,65.7985 178.5,71.5 Z"/></g>
<g><path style="opacity:1" fill="#fcdaec" d="M 199.5,63.5 C 199.5,71.8333 199.5,80.1667 199.5,88.5C 191.459,89.6257 183.459,90.959 175.5,92.5C 175.833,89.8333 176.167,87.1667 176.5,84.5C 177.563,80.3609 178.23,76.0275 178.5,71.5C 179.338,71.1583 179.672,70.4916 179.5,69.5C 186.235,66.8284 192.902,64.8284 199.5,63.5 Z"/></g>
<g><path style="opacity:1" fill="#fc8006" d="M 103.5,81.5 C 105.539,82.911 106.539,84.911 106.5,87.5C 106.663,89.8568 106.497,92.1902 106,94.5C 104.333,97.1407 102.167,99.3074 99.5,101C 99.8333,101.333 100.167,101.667 100.5,102C 96.8985,102.635 96.2318,103.968 98.5,106C 93.8452,106.499 89.1785,106.666 84.5,106.5C 82.1475,105.66 80.1475,104.326 78.5,102.5C 82.1079,103.17 85.7746,104.004 89.5,105C 88.6433,104.311 87.9767,103.478 87.5,102.5C 89.1667,101.833 90.8333,101.167 92.5,100.5C 94.7706,96.7261 97.6039,93.3928 101,90.5C 101.278,87.2793 102.111,84.2793 103.5,81.5 Z"/></g>
<g><path style="opacity:1" fill="#c9f7f2" d="M -0.5,70.5 C 5.32982,71.4439 11.1632,72.4439 17,73.5C 18.0698,73.472 18.9032,73.1386 19.5,72.5C 20.1667,75.5 20.8333,78.5 21.5,81.5C 21.9343,89.004 23.2676,96.3373 25.5,103.5C 16.7925,103.255 8.12582,103.589 -0.5,104.5C -0.5,93.1667 -0.5,81.8333 -0.5,70.5 Z"/></g>
<g><path style="opacity:1" fill="#fbebe5" d="M 84.5,75.5 C 75.0552,81.5045 72.3885,89.8379 76.5,100.5C 75.3121,99.3157 74.1455,99.3157 73,100.5C 72.6924,99.6919 72.1924,99.0253 71.5,98.5C 70.7425,99.8114 69.7425,100.311 68.5,100C 69.5536,98.6124 69.7203,97.1124 69,95.5C 68.7398,97.6175 67.7398,99.2842 66,100.5C 64.7475,97.9865 64.2475,95.3198 64.5,92.5C 65.52,87.4481 67.52,82.7815 70.5,78.5C 70.8333,78.5 71.1667,78.5 71.5,78.5C 74.5606,77.0274 77.5606,75.3607 80.5,73.5C 81.8669,74.2255 83.2003,74.8921 84.5,75.5 Z"/></g>
<g><path style="opacity:1" fill="#fa6c07" d="M 84.5,75.5 C 89.248,75.2748 93.9147,75.7748 98.5,77C 101.115,77.6119 102.781,79.1119 103.5,81.5C 102.111,84.2793 101.278,87.2793 101,90.5C 97.6039,93.3928 94.7706,96.7261 92.5,100.5C 90.8333,101.167 89.1667,101.833 87.5,102.5C 87.9767,103.478 88.6433,104.311 89.5,105C 85.7746,104.004 82.1079,103.17 78.5,102.5C 78.1667,101.5 77.5,100.833 76.5,100.5C 72.3885,89.8379 75.0552,81.5045 84.5,75.5 Z"/></g>
<g><path style="opacity:1" fill="#fde3d0" d="M 84.5,82.5 C 90.0159,82.4734 91.3492,84.64 88.5,89C 82.7377,89.4178 81.4044,87.2511 84.5,82.5 Z"/></g>
<g><path style="opacity:1" fill="#f9dda4" d="M 107.5,87.5 C 108.571,91.6776 108.571,96.0109 107.5,100.5C 107.167,100.5 106.833,100.5 106.5,100.5C 107.08,96.19 107.414,91.8566 107.5,87.5 Z"/></g>
<g><path style="opacity:1" fill="#8427d8" d="M 175.5,76.5 C 175.586,77.4959 175.252,78.3292 174.5,79C 170.286,80.2225 167.786,83.0558 167,87.5C 165.488,88.2567 164.154,89.2567 163,90.5C 160.763,94.4556 158.263,98.1222 155.5,101.5C 149.118,103.039 144.285,106.706 141,112.5C 139.37,110.849 139.537,109.183 141.5,107.5C 141.167,106.833 140.833,106.167 140.5,105.5C 139.077,108.691 138.077,112.024 137.5,115.5C 135.841,116.817 134.674,118.483 134,120.5C 133.329,121.252 132.496,121.586 131.5,121.5C 134.686,116.276 136.686,110.61 137.5,104.5C 138.118,98.8931 139.118,93.2264 140.5,87.5C 141.281,88.7287 141.781,90.062 142,91.5C 153.438,85.3172 164.772,78.9838 176,72.5C 176.658,74.108 176.158,75.2747 174.5,76C 174.728,76.3988 175.062,76.5654 175.5,76.5 Z"/></g>
<g><path style="opacity:1" fill="#f9900d" d="M 106.5,87.5 C 106.833,87.5 107.167,87.5 107.5,87.5C 107.414,91.8566 107.08,96.19 106.5,100.5C 105.185,102.135 105.185,103.801 106.5,105.5C 105.726,106.711 104.893,106.711 104,105.5C 103.167,107 102,108.167 100.5,109C 101.416,109.278 102.082,109.778 102.5,110.5C 101.167,110.5 99.8333,110.5 98.5,110.5C 96.8042,110.315 95.4709,109.481 94.5,108C 90.9748,107.821 87.6414,107.321 84.5,106.5C 89.1785,106.666 93.8452,106.499 98.5,106C 96.2318,103.968 96.8985,102.635 100.5,102C 100.167,101.667 99.8333,101.333 99.5,101C 102.167,99.3074 104.333,97.1407 106,94.5C 106.497,92.1902 106.663,89.8568 106.5,87.5 Z"/></g>
<g><path style="opacity:1" fill="#f9f0fa" d="M 63.5,92.5 C 63.8333,92.5 64.1667,92.5 64.5,92.5C 64.2475,95.3198 64.7475,97.9865 66,100.5C 67.7398,99.2842 68.7398,97.6175 69,95.5C 69.7203,97.1124 69.5536,98.6124 68.5,100C 69.7425,100.311 70.7425,99.8114 71.5,98.5C 72.1924,99.0253 72.6924,99.6919 73,100.5C 74.1455,99.3157 75.3121,99.3157 76.5,100.5C 77.5,100.833 78.1667,101.5 78.5,102.5C 80.1475,104.326 82.1475,105.66 84.5,106.5C 87.6414,107.321 90.9748,107.821 94.5,108C 95.4709,109.481 96.8042,110.315 98.5,110.5C 98.9175,111.222 99.5842,111.722 100.5,112C 98.9651,112.496 97.4651,112.33 96,111.5C 94.2326,113.164 94.7326,114.331 97.5,115C 95.7444,115.202 94.0777,115.702 92.5,116.5C 93.5617,119.103 93.7284,121.77 93,124.5C 92.2569,122.355 91.4235,122.189 90.5,124C 88.6703,127.097 88.3369,130.264 89.5,133.5C 94.7139,134.968 100.047,135.635 105.5,135.5C 102.375,136.479 99.0419,136.813 95.5,136.5C 89.7334,134.91 84.0667,132.91 78.5,130.5C 78.1667,129.5 77.5,128.833 76.5,128.5C 74.0392,125.887 71.3726,123.554 68.5,121.5C 67.4314,117.704 66.0981,114.037 64.5,110.5C 63.6932,104.536 63.3599,98.5362 63.5,92.5 Z"/></g>
<g><path style="opacity:1" fill="#fed7dc" d="M 199.5,88.5 C 199.5,102.5 199.5,116.5 199.5,130.5C 198.448,130.649 197.448,130.483 196.5,130C 197.696,129.346 197.696,128.846 196.5,128.5C 186.191,128.715 175.524,128.715 164.5,128.5C 169.167,116.855 172.834,104.855 175.5,92.5C 183.459,90.959 191.459,89.6257 199.5,88.5 Z"/></g>
<g><path style="opacity:1" fill="#e8f8f8" d="M 134.5,86.5 C 135.167,87.1667 135.833,87.8333 136.5,88.5C 137.449,93.7401 137.782,99.0735 137.5,104.5C 136.686,110.61 134.686,116.276 131.5,121.5C 129.051,124.556 126.051,126.889 122.5,128.5C 119.791,128.555 117.791,129.222 116.5,130.5C 115.313,127.633 113.313,125.3 110.5,123.5C 108.974,125.658 107.474,125.325 106,122.5C 105.493,121.004 105.993,119.837 107.5,119C 106.244,118.583 105.577,117.75 105.5,116.5C 106.833,116.5 108.167,116.5 109.5,116.5C 109.261,118.467 109.594,120.301 110.5,122C 114.486,122.499 118.486,122.666 122.5,122.5C 122.664,119.813 122.497,117.146 122,114.5C 118.962,111.631 116.129,108.631 113.5,105.5C 111.669,103.03 110.503,100.364 110,97.5C 111.062,98.0968 112.228,98.4302 113.5,98.5C 119.71,96.7656 126.044,96.0989 132.5,96.5C 133.643,93.3161 134.309,89.9827 134.5,86.5 Z"/></g>
<g><path style="opacity:1" fill="#7516d5" d="M 175.5,76.5 C 176.473,78.9479 176.806,81.6146 176.5,84.5C 176.167,87.1667 175.833,89.8333 175.5,92.5C 172.834,104.855 169.167,116.855 164.5,128.5C 162.066,131.709 160.399,135.376 159.5,139.5C 158.728,140.694 157.728,141.694 156.5,142.5C 154.876,142.64 153.71,141.973 153,140.5C 152.501,135.511 152.334,130.511 152.5,125.5C 151.5,125.5 150.5,125.5 149.5,125.5C 149.335,122.482 149.502,119.482 150,116.5C 151.771,114.416 153.104,112.082 154,109.5C 154.72,107.888 154.554,106.388 153.5,105C 154.973,104.29 155.64,103.124 155.5,101.5C 158.263,98.1222 160.763,94.4556 163,90.5C 164.154,89.2567 165.488,88.2567 167,87.5C 167.786,83.0558 170.286,80.2225 174.5,79C 175.252,78.3292 175.586,77.4959 175.5,76.5 Z"/></g>
<g><path style="opacity:1" fill="#faa712" d="M 106.5,100.5 C 106.833,100.5 107.167,100.5 107.5,100.5C 109.304,102.495 111.304,104.162 113.5,105.5C 116.129,108.631 118.962,111.631 122,114.5C 122.497,117.146 122.664,119.813 122.5,122.5C 118.486,122.666 114.486,122.499 110.5,122C 109.594,120.301 109.261,118.467 109.5,116.5C 108.167,116.5 106.833,116.5 105.5,116.5C 104.985,114.249 103.985,112.249 102.5,110.5C 102.082,109.778 101.416,109.278 100.5,109C 102,108.167 103.167,107 104,105.5C 104.893,106.711 105.726,106.711 106.5,105.5C 105.185,103.801 105.185,102.135 106.5,100.5 Z"/></g>
<g><path style="opacity:1" fill="#3ce8ba" d="M 41.5,140.5 C 40.5416,140.047 39.7083,139.381 39,138.5C 37.4097,134.324 35.5763,130.324 33.5,126.5C 30.8333,118.833 28.1667,111.167 25.5,103.5C 23.2676,96.3373 21.9343,89.004 21.5,81.5C 21.5079,78.4552 21.8413,75.4552 22.5,72.5C 24.1667,72.5 25.8333,72.5 27.5,72.5C 27.3573,74.2624 27.6906,75.9291 28.5,77.5C 27.3687,78.6039 26.5354,78.2705 26,76.5C 25.3333,78.1667 25.3333,79.8333 26,81.5C 26.3333,81.1667 26.6667,80.8333 27,80.5C 27.3333,81.8333 27.6667,83.1667 28,84.5C 28.3076,83.6919 28.8076,83.0253 29.5,82.5C 30.6855,85.593 32.0188,88.593 33.5,91.5C 32.2387,95.4804 33.5721,98.3137 37.5,100C 36.1667,100.333 34.8333,100.667 33.5,101C 35.5447,102.667 37.378,104.5 39,106.5C 39.7429,108.441 39.5762,110.274 38.5,112C 39.3081,112.308 39.9747,112.808 40.5,113.5C 39.5092,115.123 40.1759,116.123 42.5,116.5C 43.3184,119.107 43.8184,121.774 44,124.5C 44.3333,123.5 44.6667,122.5 45,121.5C 45.6667,122.833 46.3333,122.833 47,121.5C 49.4983,124.101 48.9983,125.435 45.5,125.5C 45.6203,128.48 46.287,131.313 47.5,134C 45.5795,135.122 43.5795,135.956 41.5,136.5C 41.5,137.833 41.5,139.167 41.5,140.5 Z"/></g>
<g><path style="opacity:1" fill="#8218d7" d="M 155.5,101.5 C 155.64,103.124 154.973,104.29 153.5,105C 154.554,106.388 154.72,107.888 154,109.5C 153.104,112.082 151.771,114.416 150,116.5C 149.502,119.482 149.335,122.482 149.5,125.5C 150.5,125.5 151.5,125.5 152.5,125.5C 152.334,130.511 152.501,135.511 153,140.5C 153.71,141.973 154.876,142.64 156.5,142.5C 153.691,148.109 150.358,153.442 146.5,158.5C 144.806,159.527 143.473,160.861 142.5,162.5C 141.25,162.423 140.417,161.756 140,160.5C 138.441,162.217 137.608,164.217 137.5,166.5C 134.664,166.798 134.164,166.131 136,164.5C 136.167,162.5 136.333,160.5 136.5,158.5C 136.41,156.036 135.743,153.87 134.5,152C 135.308,151.692 135.975,151.192 136.5,150.5C 136.054,147.51 136.054,144.343 136.5,141C 135.906,135.791 135.072,130.624 134,125.5C 133.667,126.167 133.333,126.833 133,127.5C 132.495,125.482 131.995,123.482 131.5,121.5C 132.496,121.586 133.329,121.252 134,120.5C 134.674,118.483 135.841,116.817 137.5,115.5C 138.077,112.024 139.077,108.691 140.5,105.5C 140.833,106.167 141.167,106.833 141.5,107.5C 139.537,109.183 139.37,110.849 141,112.5C 144.285,106.706 149.118,103.039 155.5,101.5 Z"/></g>
<g><path style="opacity:1" fill="#ebf3fc" d="M 98.5,110.5 C 99.8333,110.5 101.167,110.5 102.5,110.5C 103.985,112.249 104.985,114.249 105.5,116.5C 105.577,117.75 106.244,118.583 107.5,119C 105.993,119.837 105.493,121.004 106,122.5C 107.474,125.325 108.974,125.658 110.5,123.5C 113.313,125.3 115.313,127.633 116.5,130.5C 117.791,129.222 119.791,128.555 122.5,128.5C 121.473,130.194 120.139,131.527 118.5,132.5C 114.366,134.283 110.033,135.283 105.5,135.5C 100.047,135.635 94.7139,134.968 89.5,133.5C 88.3369,130.264 88.6703,127.097 90.5,124C 91.4235,122.189 92.2569,122.355 93,124.5C 93.7284,121.77 93.5617,119.103 92.5,116.5C 94.0777,115.702 95.7444,115.202 97.5,115C 94.7326,114.331 94.2326,113.164 96,111.5C 97.4651,112.33 98.9651,112.496 100.5,112C 99.5842,111.722 98.9175,111.222 98.5,110.5 Z"/></g>
<g><path style="opacity:1" fill="#d4f5e5" d="M 25.5,103.5 C 28.1667,111.167 30.8333,118.833 33.5,126.5C 26.1291,127.386 19.2958,129.053 13,131.5C 12.586,131.043 12.086,130.709 11.5,130.5C 7.63732,131.216 3.63732,132.216 -0.5,133.5C -0.5,123.833 -0.5,114.167 -0.5,104.5C 8.12582,103.589 16.7925,103.255 25.5,103.5 Z"/></g>
<g><path style="opacity:1" fill="#fdd8d0" d="M 164.5,128.5 C 175.524,128.715 186.191,128.715 196.5,128.5C 197.696,128.846 197.696,129.346 196.5,130C 197.448,130.483 198.448,130.649 199.5,130.5C 199.5,150.167 199.5,169.833 199.5,189.5C 193.95,185.813 190.617,180.979 189.5,175C 186.299,171.464 182.799,168.297 179,165.5C 177.853,160.858 175.353,157.191 171.5,154.5C 168.546,148.517 164.546,143.517 159.5,139.5C 160.399,135.376 162.066,131.709 164.5,128.5 Z"/></g>
<g><path style="opacity:1" fill="#da57e9" d="M 59.5,131.5 C 60.1226,134.371 60.4559,137.204 60.5,140C 57.9874,142.396 56.9874,145.396 57.5,149C 57.6667,151.167 57.8333,153.333 58,155.5C 60.8245,157.524 60.6578,159.691 57.5,162C 58.4491,162.617 59.2825,162.451 60,161.5C 60.195,162.819 60.0283,164.153 59.5,165.5C 55.8333,161.5 52.1667,157.5 48.5,153.5C 48.2671,151.938 47.6005,150.605 46.5,149.5C 45.3855,146.823 45.3855,144.156 46.5,141.5C 47.5237,140.147 48.857,139.48 50.5,139.5C 50.2792,134.938 51.7792,134.272 55,137.5C 55.49,136.207 55.6567,134.873 55.5,133.5C 57.9424,133.646 58.6091,132.813 57.5,131C 58.4368,130.308 59.1034,130.475 59.5,131.5 Z"/></g>
<g><path style="opacity:1" fill="#bf32e3" d="M 78.5,130.5 C 84.0667,132.91 89.7334,134.91 95.5,136.5C 96.5,137.167 97.5,137.833 98.5,138.5C 95.1934,138.937 92.1934,138.27 89.5,136.5C 87.4462,138.26 85.4462,140.093 83.5,142C 85.2489,148.788 87.2489,155.788 89.5,163C 89.1402,164.652 88.8068,166.318 88.5,168C 91.3854,170.056 91.7188,172.223 89.5,174.5C 91.2881,178.652 92.2881,182.986 92.5,187.5C 90.0722,185.957 87.4056,184.957 84.5,184.5C 84.5,184.167 84.5,183.833 84.5,183.5C 84.4022,182.118 84.4022,180.618 84.5,179C 83.7171,176.882 82.3838,175.382 80.5,174.5C 77.5255,170.754 76.8589,166.587 78.5,162C 77.0614,156.041 75.7281,150.041 74.5,144C 75.041,140.172 75.541,136.339 76,132.5C 76.4169,131.244 77.2502,130.577 78.5,130.5 Z"/></g>
<g><path style="opacity:1" fill="#b728e3" d="M 98.5,138.5 C 99.6921,139.566 99.3588,140.399 97.5,141C 98.1667,143 98.8333,145 99.5,147C 99.1667,147.333 98.8333,147.667 98.5,148C 99.1861,159.957 99.8528,171.957 100.5,184C 99.2139,186.946 96.8806,188.112 93.5,187.5C 93.1667,187.5 92.8333,187.5 92.5,187.5C 92.2881,182.986 91.2881,178.652 89.5,174.5C 91.7188,172.223 91.3854,170.056 88.5,168C 88.8068,166.318 89.1402,164.652 89.5,163C 87.2489,155.788 85.2489,148.788 83.5,142C 85.4462,140.093 87.4462,138.26 89.5,136.5C 92.1934,138.27 95.1934,138.937 98.5,138.5 Z"/></g>
<g><path style="opacity:1" fill="#d04ae6" d="M 68.5,121.5 C 71.3726,123.554 74.0392,125.887 76.5,128.5C 74.5165,128.617 72.8498,127.95 71.5,126.5C 65.1275,138.089 64.9609,149.756 71,161.5C 71.2819,165.039 71.7819,168.539 72.5,172C 71.1781,174.52 71.8447,175.02 74.5,173.5C 75.6131,175.031 77.1131,176.031 79,176.5C 81.3595,176.676 81.8595,176.009 80.5,174.5C 82.3838,175.382 83.7171,176.882 84.5,179C 84.4022,180.618 84.4022,182.118 84.5,183.5C 75.0448,179.043 66.7114,173.043 59.5,165.5C 60.0283,164.153 60.195,162.819 60,161.5C 59.2825,162.451 58.4491,162.617 57.5,162C 60.6578,159.691 60.8245,157.524 58,155.5C 57.8333,153.333 57.6667,151.167 57.5,149C 56.9874,145.396 57.9874,142.396 60.5,140C 60.4559,137.204 60.1226,134.371 59.5,131.5C 61.0101,129.678 62.3434,127.678 63.5,125.5C 64.5846,123.413 66.2512,122.08 68.5,121.5 Z"/></g>
<g><path style="opacity:1" fill="#951fd8" d="M 131.5,121.5 C 131.995,123.482 132.495,125.482 133,127.5C 133.333,126.833 133.667,126.167 134,125.5C 135.072,130.624 135.906,135.791 136.5,141C 136.054,144.343 136.054,147.51 136.5,150.5C 135.975,151.192 135.308,151.692 134.5,152C 135.743,153.87 136.41,156.036 136.5,158.5C 136.333,160.5 136.167,162.5 136,164.5C 134.164,166.131 134.664,166.798 137.5,166.5C 137.608,164.217 138.441,162.217 140,160.5C 140.417,161.756 141.25,162.423 142.5,162.5C 135.656,170.35 127.656,176.683 118.5,181.5C 115.894,179.579 115.894,177.579 118.5,175.5C 116.945,172.17 115.945,168.67 115.5,165C 115.665,157.652 115.665,149.819 115.5,141.5C 110.55,140.862 110.883,140.029 116.5,139C 115.66,137.334 116.16,137.167 118,138.5C 118.495,136.527 118.662,134.527 118.5,132.5C 120.139,131.527 121.473,130.194 122.5,128.5C 126.051,126.889 129.051,124.556 131.5,121.5 Z"/></g>
<g><path style="opacity:1" fill="#d469e4" d="M 63.5,125.5 C 62.3434,127.678 61.0101,129.678 59.5,131.5C 59.1034,130.475 58.4368,130.308 57.5,131C 58.6091,132.813 57.9424,133.646 55.5,133.5C 55.6567,134.873 55.49,136.207 55,137.5C 51.7792,134.272 50.2792,134.938 50.5,139.5C 48.857,139.48 47.5237,140.147 46.5,141.5C 45.3855,144.156 45.3855,146.823 46.5,149.5C 44.5975,146.701 42.9308,143.701 41.5,140.5C 47.5378,136.155 53.5378,131.821 59.5,127.5C 60.6049,126.4 61.9382,125.733 63.5,125.5 Z"/></g>
<g><path style="opacity:1" fill="#a224d8" d="M 118.5,132.5 C 118.662,134.527 118.495,136.527 118,138.5C 116.16,137.167 115.66,137.334 116.5,139C 110.883,140.029 110.55,140.862 115.5,141.5C 115.665,149.819 115.665,157.652 115.5,165C 115.945,168.67 116.945,172.17 118.5,175.5C 115.894,177.579 115.894,179.579 118.5,181.5C 117.833,182.167 117.167,182.833 116.5,183.5C 111.93,185.415 107.264,187.249 102.5,189C 99.1368,189.927 96.1368,189.427 93.5,187.5C 96.8806,188.112 99.2139,186.946 100.5,184C 99.8528,171.957 99.1861,159.957 98.5,148C 98.8333,147.667 99.1667,147.333 99.5,147C 98.8333,145 98.1667,143 97.5,141C 99.3588,140.399 99.6921,139.566 98.5,138.5C 97.5,137.833 96.5,137.167 95.5,136.5C 99.0419,136.813 102.375,136.479 105.5,135.5C 110.033,135.283 114.366,134.283 118.5,132.5 Z"/></g>
<g><path style="opacity:1" fill="#e1f2d8" d="M 33.5,126.5 C 35.5763,130.324 37.4097,134.324 39,138.5C 39.7083,139.381 40.5416,140.047 41.5,140.5C 42.9308,143.701 44.5975,146.701 46.5,149.5C 47.6005,150.605 48.2671,151.938 48.5,153.5C 47.2029,155.161 45.8696,156.828 44.5,158.5C 39.5579,158.813 34.8912,160.147 30.5,162.5C 28.1493,161.287 26.316,161.953 25,164.5C 24.6667,164.167 24.3333,163.833 24,163.5C 21.6069,165.367 19.1069,166.034 16.5,165.5C 15.8027,167.385 14.8027,167.718 13.5,166.5C 12.8027,168.385 11.8027,168.718 10.5,167.5C 7.10222,169.579 3.43555,170.913 -0.5,171.5C -0.5,158.833 -0.5,146.167 -0.5,133.5C 3.63732,132.216 7.63732,131.216 11.5,130.5C 12.086,130.709 12.586,131.043 13,131.5C 19.2958,129.053 26.1291,127.386 33.5,126.5 Z"/></g>
<g><path style="opacity:1" fill="#ebefd1" d="M 48.5,153.5 C 52.1667,157.5 55.8333,161.5 59.5,165.5C 66.7114,173.043 75.0448,179.043 84.5,183.5C 84.5,183.833 84.5,184.167 84.5,184.5C 83.4532,189.62 84.7866,194.62 88.5,199.5C 68.5,199.5 48.5,199.5 28.5,199.5C 29.3999,196.928 29.3999,194.094 28.5,191C 30.5689,190.676 30.9023,189.842 29.5,188.5C 31.0267,186.807 32.3601,184.973 33.5,183C 33.5947,175.406 36.428,168.906 42,163.5C 43.0945,161.922 43.9278,160.255 44.5,158.5C 45.8696,156.828 47.2029,155.161 48.5,153.5 Z"/></g>
<g><path style="opacity:1" fill="#cb3fe6" d="M 76.5,128.5 C 77.5,128.833 78.1667,129.5 78.5,130.5C 77.2502,130.577 76.4169,131.244 76,132.5C 75.541,136.339 75.041,140.172 74.5,144C 75.7281,150.041 77.0614,156.041 78.5,162C 76.8589,166.587 77.5255,170.754 80.5,174.5C 81.8595,176.009 81.3595,176.676 79,176.5C 77.1131,176.031 75.6131,175.031 74.5,173.5C 71.8447,175.02 71.1781,174.52 72.5,172C 71.7819,168.539 71.2819,165.039 71,161.5C 64.9609,149.756 65.1275,138.089 71.5,126.5C 72.8498,127.95 74.5165,128.617 76.5,128.5 Z"/></g>
<g><path style="opacity:1" fill="#e5f0d2" d="M 44.5,158.5 C 43.9278,160.255 43.0945,161.922 42,163.5C 36.428,168.906 33.5947,175.406 33.5,183C 32.3601,184.973 31.0267,186.807 29.5,188.5C 30.9023,189.842 30.5689,190.676 28.5,191C 29.3999,194.094 29.3999,196.928 28.5,199.5C 18.8333,199.5 9.16667,199.5 -0.5,199.5C -0.5,190.167 -0.5,180.833 -0.5,171.5C 3.43555,170.913 7.10222,169.579 10.5,167.5C 11.8027,168.718 12.8027,168.385 13.5,166.5C 14.8027,167.718 15.8027,167.385 16.5,165.5C 19.1069,166.034 21.6069,165.367 24,163.5C 24.3333,163.833 24.6667,164.167 25,164.5C 26.316,161.953 28.1493,161.287 30.5,162.5C 34.8912,160.147 39.5579,158.813 44.5,158.5 Z"/></g>
<g><path style="opacity:1" fill="#fae4cf" d="M 146.5,158.5 C 151.071,164.605 155.571,170.939 160,177.5C 163.223,185.022 166.723,192.356 170.5,199.5C 158.833,199.5 147.167,199.5 135.5,199.5C 133.992,198.254 132.492,196.92 131,195.5C 130.667,195.833 130.333,196.167 130,196.5C 129.626,195.584 129.126,194.75 128.5,194C 126.481,193.55 124.648,192.717 123,191.5C 122.667,191.833 122.333,192.167 122,192.5C 121.71,190.956 121.044,189.623 120,188.5C 119.309,190.891 118.309,190.891 117,188.5C 116.506,186.866 116.34,185.199 116.5,183.5C 117.167,182.833 117.833,182.167 118.5,181.5C 127.656,176.683 135.656,170.35 142.5,162.5C 143.473,160.861 144.806,159.527 146.5,158.5 Z"/></g>
<g><path style="opacity:1" fill="#fbdcce" d="M 159.5,139.5 C 164.546,143.517 168.546,148.517 171.5,154.5C 175.353,157.191 177.853,160.858 179,165.5C 182.799,168.297 186.299,171.464 189.5,175C 190.617,180.979 193.95,185.813 199.5,189.5C 199.5,192.833 199.5,196.167 199.5,199.5C 189.833,199.5 180.167,199.5 170.5,199.5C 166.723,192.356 163.223,185.022 160,177.5C 155.571,170.939 151.071,164.605 146.5,158.5C 150.358,153.442 153.691,148.109 156.5,142.5C 157.728,141.694 158.728,140.694 159.5,139.5 Z"/></g>
<g><path style="opacity:1" fill="#f6ead0" d="M 116.5,183.5 C 116.34,185.199 116.506,186.866 117,188.5C 118.309,190.891 119.309,190.891 120,188.5C 121.044,189.623 121.71,190.956 122,192.5C 122.333,192.167 122.667,191.833 123,191.5C 124.648,192.717 126.481,193.55 128.5,194C 129.126,194.75 129.626,195.584 130,196.5C 130.333,196.167 130.667,195.833 131,195.5C 132.492,196.92 133.992,198.254 135.5,199.5C 119.833,199.5 104.167,199.5 88.5,199.5C 84.7866,194.62 83.4532,189.62 84.5,184.5C 87.4056,184.957 90.0722,185.957 92.5,187.5C 92.8333,187.5 93.1667,187.5 93.5,187.5C 96.1368,189.427 99.1368,189.927 102.5,189C 107.264,187.249 111.93,185.415 116.5,183.5 Z"/></g>
</svg>
